Coordinates
version=1
nRows=28
nColumns=34
inDegrees=no

Units are S.I. units (second, meters, Newtons, ...)
If the header above contains a line with 'inDegrees', this indicates whether rotational values are in degrees (yes) or radians (no).

endheader
time	pelvis_tilt	pelvis_list	pelvis_rotation	pelvis_tx	pelvis_ty	pelvis_tz	hip_flexion_r	hip_adduction_r	hip_rotation_r	knee_angle_r	ankle_angle_r	subtalar_angle_r	mtp_angle_r	hip_flexion_l	hip_adduction_l	hip_rotation_l	knee_angle_l	ankle_angle_l	subtalar_angle_l	mtp_angle_l	lumbar_extension	lumbar_bending	lumbar_rotation	arm_flex_r	arm_add_r	arm_rot_r	elbow_flex_r	pro_sup_r	arm_flex_l	arm_add_l	arm_rot_l	elbow_flex_l	pro_sup_l
1.27	0.00800997	0.0445367	-0.0751574	-0.408791	0.962841	-0.597012	0.486889	-0.224029	-0.09878	0.326055	-0.455695	0.0532603	-0.109392	0.487699	-0.217866	-0.227704	0.4718	-0.505428	-0.0124019	-0.112683	-0.290607	0.0175941	0.103582	0.0229728	-0.218239	-0.386096	1.64646	0.557822	-0.0165911	-0.458634	-0.0349595	1.56472	1.74024
1.28	0.0181145	0.0459794	-0.081445	-0.398987	0.937983	-0.596927	0.54246	-0.221568	-0.051685	0.47843	-0.265872	0.0201874	-0.10948	0.52613	-0.221439	-0.19165	0.609095	-0.315631	-0.0428224	-0.112584	-0.299299	0.0166531	0.116781	0.0395363	-0.226448	-0.365626	1.60528	0.933525	-0.00818264	-0.45415	-0.0412579	1.57565	1.74535
1.29	0.0214707	0.0460356	-0.0880139	-0.390205	0.913701	-0.597135	0.603679	-0.217062	-0.0104515	0.621421	-0.105797	-0.00669203	-0.109569	0.570686	-0.225469	-0.157316	0.737438	-0.149336	-0.0698786	-0.112484	-0.305609	0.0184431	0.12995	0.0621889	-0.233662	-0.347013	1.56886	1.21128	0.0035185	-0.447298	-0.0452004	1.58287	1.74853
1.3	0.0182881	0.0447136	-0.094836	-0.382414	0.890014	-0.597631	0.67022	-0.210543	0.0249428	0.754723	0.024863	-0.027463	-0.109657	0.621202	-0.229951	-0.124667	0.856699	-0.00661126	-0.0936037	-0.112384	-0.309638	0.0229308	0.143062	0.0909067	-0.23984	-0.330077	1.53677	1.39724	0.0184997	-0.43816	-0.0467416	1.58645	1.74993
1.31	0.0089592	0.0420054	-0.10184	-0.375525	0.867024	-0.598413	0.741036	-0.202147	0.0545739	0.877592	0.127437	-0.0424059	-0.109746	0.67711	-0.23486	-0.0936124	0.966662	0.112653	-0.114072	-0.112284	-0.311809	0.029964	0.156024	0.125584	-0.244858	-0.314482	1.50829	1.50438	0.0367036	-0.427014	-0.0457515	1.58663	1.74987
1.32	-0.00573095	0.0380002	-0.108886	-0.369517	0.845271	-0.599476	0.814237	-0.19215	0.0786108	0.988979	0.204737	-0.0520474	-0.109834	0.737316	-0.240152	-0.0640407	1.06715	0.209109	-0.131376	-0.112185	-0.312909	0.0392258	0.168662	0.165968	-0.248479	-0.299824	1.48267	1.55024	0.0580024	-0.414435	-0.0420088	1.58398	1.74875
1.33	-0.0245628	0.0329115	-0.115783	-0.364528	0.824731	-0.600725	0.88728	-0.181019	0.0973927	1.08786	0.260962	-0.0571313	-0.109922	0.800191	-0.245701	-0.0359214	1.15817	0.284212	-0.145621	-0.112085	-0.31408	0.050162	0.180736	0.211623	-0.250393	-0.285734	1.45943	1.55395	0.0822144	-0.401302	-0.0352315	1.57944	1.74697
1.34	-0.0460542	0.0272215	-0.122314	-0.360451	0.805568	-0.602055	0.957492	-0.169412	0.111517	1.17367	0.301094	-0.0585117	-0.110011	0.863736	-0.25127	-0.00941593	1.23989	0.340292	-0.156942	-0.111985	-0.316673	0.061956	0.191981	0.261941	-0.250288	-0.271942	1.43851	1.5334	0.109165	-0.388722	-0.0251427	1.5742	1.74481
1.35	-0.0685868	0.0215214	-0.128238	-0.357163	0.787871	-0.603379	1.02269	-0.158169	0.121886	1.24655	0.330101	-0.057024	-0.110099	0.925852	-0.256447	0.0150783	1.3126	0.380457	-0.165522	-0.111886	-0.321898	0.0735001	0.202122	0.316195	-0.24795	-0.258276	1.42023	1.50335	0.138733	-0.377869	-0.0115524	1.56957	1.74242
1.36	-0.0907917	0.0164998	-0.133287	-0.354509	0.771641	-0.604663	1.08156	-0.14819	0.129605	1.30749	0.352246	-0.0533971	-0.110188	0.98465	-0.260689	0.0370609	1.37665	0.408301	-0.171598	-0.111786	-0.330586	0.0836175	0.210885	0.373592	-0.243352	-0.244602	1.4051	1.47447	0.170872	-0.369784	0.00556813	1.56664	1.73975
1.37	-0.11174	0.0127412	-0.137164	-0.352387	0.756843	-0.605881	1.13377	-0.140267	0.135739	1.35814	0.370666	-0.0482421	-0.110276	1.03877	-0.263454	0.0561754	1.43246	0.427461	-0.175458	-0.111686	-0.342992	0.0913609	0.218031	0.43335	-0.23671	-0.230753	1.39356	1.4532	0.205587	-0.365177	0.0260286	1.56608	1.73661
1.38	-0.131023	0.0105206	-0.13959	-0.350712	0.743372	-0.607016	1.17979	-0.134908	0.141046	1.40048	0.387259	-0.042096	-0.110365	1.0876	-0.264371	0.0724296	1.4806	0.441144	-0.177401	-0.111587	-0.358805	0.096272	0.223421	0.494749	-0.22848	-0.216506	1.38576	1.44224	0.242895	-0.364281	0.0493756	1.56793	1.73263
1.39	-0.148627	0.00969362	-0.140367	-0.349416	0.731093	-0.608066	1.22057	-0.132237	0.145824	1.43645	0.402827	-0.0354736	-0.110453	1.13125	-0.263378	0.0862548	1.52181	0.451782	-0.177677	-0.111487	-0.377274	0.0984777	0.227083	0.55715	-0.21929	-0.201604	1.38147	1.44141	0.282773	-0.366788	0.0748676	1.5716	1.72748
1.4	-0.164805	0.00974018	-0.139447	-0.348398	0.719883	-0.609052	1.25717	-0.132017	0.149947	1.46773	0.4174	-0.0288837	-0.110541	1.17041	-0.26076	0.0983871	1.55703	0.46089	-0.17643	-0.111387	-0.397435	0.0985856	0.229235	0.619981	-0.209841	-0.185824	1.38011	1.44869	0.325099	-0.371892	0.101489	1.57601	1.72105
1.41	-0.179912	0.00994471	-0.136944	-0.347531	0.709714	-0.609937	1.29049	-0.133766	0.153024	1.49559	0.430606	-0.0227913	-0.11063	1.20609	-0.257078	0.109651	1.5873	0.469118	-0.173684	-0.111287	-0.418303	0.0974621	0.230231	0.682688	-0.200799	-0.169043	1.38083	1.46115	0.369594	-0.37844	0.128017	1.57984	1.71368
1.42	-0.194292	0.00961475	-0.133097	-0.346696	0.700518	-0.610708	1.32123	-0.136896	0.154607	1.52089	0.442005	-0.0175491	-0.110718	1.23936	-0.253032	0.120749	1.61367	0.476435	-0.169377	-0.111188	-0.438982	0.0959773	0.230485	0.744686	-0.192694	-0.151293	1.38276	1.47569	0.415773	-0.385147	0.153134	1.5819	1.70626
1.43	-0.208274	0.00823383	-0.128222	-0.345818	0.692255	-0.611352	1.34983	-0.140858	0.154348	1.54416	0.451323	-0.0133434	-0.110807	1.2712	-0.249317	0.132132	1.63712	0.482384	-0.163436	-0.111088	-0.458721	0.0948083	0.230378	0.805338	-0.185869	-0.132786	1.38513	1.48962	0.462932	-0.390825	0.175581	1.58138	1.70008
1.44	-0.222138	0.00552186	-0.12265	-0.344871	0.684859	-0.611851	1.37657	-0.14524	0.152104	1.56565	0.458582	-0.0101843	-0.110895	1.30243	-0.246484	0.143948	1.65845	0.486349	-0.155856	-0.110988	-0.4769	0.0943468	0.230174	0.863957	-0.18046	-0.113907	1.38745	1.50084	0.510192	-0.394589	0.194315	1.57812	1.69654
1.45	-0.236095	0.00146053	-0.116666	-0.343825	0.678238	-0.612193	1.40162	-0.149803	0.147951	1.58543	0.464108	-0.00793258	-0.110984	1.3336	-0.244877	0.156075	1.67821	0.487828	-0.14676	-0.110889	-0.493043	0.0947055	0.229976	0.919858	-0.176433	-0.095166	1.38964	1.50798	0.556604	-0.396004	0.208671	1.57261	1.69685
1.46	-0.250269	-0.00375313	-0.110454	-0.342657	0.67229	-0.612374	1.42507	-0.154487	0.142164	1.60353	0.46848	-0.0063392	-0.111072	1.36497	-0.244598	0.168187	1.69676	0.486674	-0.136409	-0.110789	-0.506841	0.0957698	0.229724	0.97243	-0.173647	-0.0771008	1.39196	1.51032	0.601293	-0.395151	0.218474	1.56593	1.70179
1.47	-0.264653	-0.00977865	-0.104095	-0.34134	0.666902	-0.612413	1.44693	-0.159379	0.135163	1.61995	0.472419	-0.00509018	-0.111161	1.3964	-0.245528	0.179833	1.71419	0.483248	-0.125184	-0.11069	-0.518204	0.0972689	0.229213	1.02121	-0.171947	-0.0601768	1.39499	1.50767	0.643615	-0.3926	0.224056	1.55946	1.71187
1.48	-0.279061	-0.016208	-0.0975941	-0.339864	0.66199	-0.612336	1.46708	-0.164637	0.127461	1.63474	0.476659	-0.00386665	-0.111249	1.42731	-0.247383	0.190518	1.73038	0.478467	-0.113547	-0.11059	-0.527282	0.0988446	0.228164	1.06596	-0.171227	-0.0447076	1.39942	1.50035	0.683271	-0.3893	0.226238	1.55458	1.72709
1.49	-0.293125	-0.0226375	-0.0909336	-0.338226	0.657498	-0.612165	1.48527	-0.170387	0.119596	1.64802	0.481802	-0.00243173	-0.111338	1.45673	-0.249801	0.199776	1.74508	0.47369	-0.102001	-0.11049	-0.534455	0.100108	0.2263	1.10661	-0.17146	-0.0308279	1.40597	1.48911	0.720346	-0.386411	0.226214	1.55249	1.74669
1.5	-0.30635	-0.0287432	-0.0841279	-0.336414	0.653406	-0.611916	1.50114	-0.176617	0.112078	1.65992	0.488204	-0.000726079	-0.111427	1.48343	-0.252425	0.20726	1.75792	0.47048	-0.0910362	-0.110391	-0.540253	0.100694	0.223423	1.1433	-0.172702	-0.0185203	1.41519	1.47505	0.755247	-0.385127	0.225386	1.55398	1.76916
1.51	-0.318228	-0.0343186	-0.0772297	-0.33442	0.649738	-0.6116	1.51429	-0.183128	0.105318	1.67059	0.495917	0.00107299	-0.111515	1.50616	-0.254949	0.212821	1.76856	0.470252	-0.0810827	-0.110291	-0.54523	0.100322	0.219462	1.17624	-0.175056	-0.00767394	1.42746	1.45943	0.788555	-0.386486	0.225136	1.55947	1.79233
1.52	-0.328318	-0.0392746	-0.070324	-0.33224	0.646554	-0.611234	1.52437	-0.189561	0.0995748	1.68015	0.504689	0.00256597	-0.111604	1.52396	-0.257129	0.216575	1.77678	0.473928	-0.0724781	-0.110192	-0.549801	0.0988873	0.214485	1.20565	-0.178648	0.00185062	1.44298	1.44346	0.820848	-0.391204	0.226582	1.56896	1.81384
1.53	-0.336348	-0.0436639	-0.0635078	-0.329864	0.64392	-0.610839	1.53115	-0.19548	0.0949248	1.68866	0.514041	0.0032182	-0.111692	1.53632	-0.258755	0.218908	1.78252	0.481661	-0.0654506	-0.110092	-0.554143	0.0964825	0.208667	1.23168	-0.183587	0.0101758	1.46183	1.42797	0.852541	-0.399566	0.230341	1.58215	1.83186
1.54	-0.342271	-0.0476564	-0.0568611	-0.327271	0.641897	-0.610437	1.53457	-0.200473	0.091271	1.69613	0.523359	0.00248231	-0.111781	1.54336	-0.259626	0.220423	1.78595	0.492739	-0.0601327	-0.109992	-0.558157	0.0933873	0.202248	1.2544	-0.189942	0.0173759	1.48403	1.41321	0.883781	-0.411426	0.236444	1.59864	1.84547
